<?xml version="1.0" encoding="UTF-8"?>
<svg width="74.172mm" height="15.974mm" version="1.1" viewBox="0 0 74.172 15.974" xmlns="http://www.w3.org/2000/svg" xmlns:cc="http://creativecommons.org/ns#" xmlns:dc="http://purl.org/dc/elements/1.1/" xmlns:rdf="http://www.w3.org/1999/02/22-rdf-syntax-ns#">
 <metadata>
  <rdf:RDF>
   <cc:Work rdf:about="">
    <dc:format>image/svg+xml</dc:format>
    <dc:type rdf:resource="http://purl.org/dc/dcmitype/StillImage"/>
    <dc:title/>
   </cc:Work>
  </rdf:RDF>
 </metadata>
 <g transform="translate(-61.944 -131.11)" fill="#3f51b5">
  <g stroke-width=".26458" aria-label="myClarity">
   <path d="m88.1 143.83v-5.5033h0.508l0.04233 1.016q0.26458-0.53975 0.80433-0.83608 0.53975-0.29634 1.2065-0.29634 0.53975 0 0.94191 0.26459 0.41275 0.254 0.64558 0.98424 0.15875-0.32808 0.45508-0.61383 0.30692-0.28575 0.71966-0.45508 0.42333-0.17992 0.93133-0.17992 0.8255 0 1.2806 0.56092 0.46566 0.55033 0.46566 1.7251v3.3337h-0.52916v-3.3126q0-0.92074-0.34925-1.3547-0.33866-0.4445-1.0054-0.4445-0.53975 0-0.96308 0.24342-0.41275 0.24341-0.65616 0.64558-0.23283 0.40217-0.23283 0.85725v3.3655h-0.52916v-3.3126q0-0.92074-0.34925-1.3547-0.34925-0.4445-1.016-0.4445-0.53975 0-0.9525 0.24342-0.41275 0.24341-0.65616 0.64558-0.23283 0.40217-0.23283 0.85725v3.3655z"/>
   <path d="m98.524 146.26 0.94191-2.4024-2.5717-5.5351h0.56092l2.0426 4.3815q0.05292 0.127 0.10583 0.254 0.05292 0.11641 0.10583 0.24341 0.03175-0.0741 0.05292-0.13758 0.03175-0.0741 0.0635-0.14817l1.8415-4.5932h0.56092l-2.1908 5.5033-0.96308 2.4342z"/>
   <path d="m106.36 143.93q-1.0266 0-1.8309-0.48683-0.79375-0.48683-1.2488-1.3441t-0.45508-1.9791q0-0.79375 0.27516-1.4711 0.28575-0.68791 0.78317-1.2065 0.49741-0.51858 1.1536-0.80433 0.65616-0.28575 1.4182-0.28575 0.53975 0 1.0478 0.16933 0.51858 0.15875 0.93133 0.45508 0.42333 0.28575 0.68791 0.65617l-0.762 0.79374q-0.91016-0.93133-1.905-0.93133-0.68792 0-1.2488 0.33867-0.56091 0.33866-0.889 0.93133-0.32808 0.59266-0.32808 1.3547 0 0.81492 0.3175 1.4076 0.32808 0.59267 0.89958 0.92075 0.58208 0.32808 1.3441 0.32808 0.52916 0 1.016-0.21167 0.48683-0.21166 0.84666-0.58208l0.5715 0.93133q-0.24342 0.28575-0.66675 0.51858-0.41275 0.23284-0.93133 0.37042-0.508 0.127-1.0266 0.127z"/>
   <path d="m110.28 143.83v-7.8316h1.0901v7.8316z"/>
   <path d="m114.95 143.93q-0.68792 0-1.2594-0.381-0.56092-0.381-0.89958-1.0372-0.33867-0.65617-0.33867-1.4817 0-0.83609 0.33867-1.4817 0.34925-0.65616 0.93133-1.0266 0.59266-0.37041 1.3229-0.37041 0.62441 0 1.1007 0.27516 0.48683 0.26459 0.74083 0.68792v-0.84667h1.1007v5.5562h-1.1007v-0.85725q-0.28575 0.40216-0.81491 0.68791-0.51858 0.27517-1.1218 0.27517zm0.28575-1.0054q0.49741 0 0.87841-0.24342t0.59267-0.66675q0.22225-0.43391 0.22225-0.98424 0-0.53975-0.22225-0.96309-0.21167-0.42333-0.59267-0.66674-0.381-0.24342-0.87841-0.24342-0.48683 0-0.86783 0.24342-0.37042 0.24341-0.59267 0.66674-0.21166 0.42334-0.21166 0.96309 0 0.55033 0.21166 0.98424 0.22225 0.42333 0.59267 0.66675 0.381 0.24342 0.86783 0.24342z"/>
   <path d="m119.51 143.83v-5.5562h1.1007v1.0478q0.24341-0.49741 0.70908-0.8255 0.46566-0.33866 0.98425-0.33866 0.17991 0 0.33866 0.0317 0.16933 0.0318 0.26458 0.0741l-0.28574 1.1853q-0.127-0.0529-0.28575-0.0847-0.14817-0.0423-0.29634-0.0423-0.38099 0-0.70908 0.1905-0.3175 0.1905-0.51858 0.51858t-0.20108 0.73025v3.0692z"/>
   <path d="m124.51 137.04q-0.34925 0-0.53975-0.17991-0.19049-0.17992-0.19049-0.508 0-0.30692 0.19049-0.49742 0.20109-0.1905 0.53975-0.1905 0.34925 0 0.53975 0.17992 0.1905 0.17991 0.1905 0.508 0 0.30691-0.20108 0.49741-0.1905 0.1905-0.52917 0.1905zm-0.52916 6.7839v-5.5562h1.0901v5.5562z"/>
   <path d="m127.41 143.83v-4.4979h-1.1536v-1.0583h1.1536v-1.4182h1.0901v1.4182h1.2912v1.0583h-1.2912v4.4979z"/>
   <path d="m131.71 146.26 0.94191-2.1696-2.5823-5.8208h1.27l1.7357 4.0852q0.0529 0.11641 0.13758 0.37041l0.15875-0.4445 1.4499-4.0111h1.2912l-2.286 5.5562-0.94192 2.4342z"/>
  </g>
  <g stroke-width=".58421" aria-label="🌤">
   <path d="m64.442 138.95q0.02282 0.0913 0.03423 0.17115 0.02282 0.0685 0.02282 0.13693h-1.8028q-0.29667 0-0.51346-0.22821-0.2168-0.2282-0.23962-0.53628 0-0.3309 0.22821-0.57052 0.23962-0.23961 0.5591-0.23961h1.7686q-0.06846 0.46782-0.06846 0.90141 0 0.0913 0 0.18257 0 0.0913 0.01141 0.18256zm-0.36513-4.5527q-0.23962-0.23962-0.23962-0.57052 0-0.30807 0.20539-0.54769 0.22821-0.22821 0.5591-0.22821 0.31949 0 0.57052 0.22821l1.2323 1.2323q-0.31949 0.22821-0.59334 0.52488-0.27385 0.28525-0.50205 0.59333zm5.9448-0.78731q-0.17115-0.0228-0.35372-0.0342-0.17116-0.0228-0.36513-0.0228-0.26244 0-0.51346 0.0342-0.15974 0-0.3309 0.0571v-1.7458q0-0.3309 0.2168-0.5591 0.22821-0.22821 0.5591-0.22821h0.03423q0.30808 0 0.52487 0.22821 0.22821 0.2282 0.22821 0.53628zm3.2063 1.9398q-0.22821-0.31949-0.51346-0.59334-0.27385-0.28525-0.61616-0.50205l1.2437-1.2323q0.1141-0.10269 0.23962-0.15975 0.12551-0.0685 0.28526-0.0685 0.31949 0 0.57052 0.22821 0.22821 0.25102 0.22821 0.54769 0 0.31949-0.22821 0.5477zm-6.5723 5.4769q-0.51346-0.51346-0.78731-1.1753-0.27385-0.6732-0.27385-1.4377t0.28526-1.4377q0.29667-0.68462 0.79872-1.1867 0.50205-0.50206 1.1753-0.78731 0.67321-0.29667 1.4377-0.29667 0.58192 0 1.1182 0.18256 0.53628 0.17116 0.98129 0.47923 0.445 0.30808 0.78731 0.74167 0.34231 0.42219 0.53628 0.92424-0.29667 0.43359-0.51346 0.89-0.20538 0.45641-0.29667 0.96988h-0.02282q-0.82154 0-1.5632 0.34231-0.74167 0.3309-1.278 0.94705-0.67321 0.0228-1.278 0.23962-0.59334 0.21679-1.1068 0.60474zm14.092-2.3848q0.86718 0 1.6203 0.3309 0.76449 0.3309 1.335 0.90141 0.57052 0.57052 0.90141 1.335t0.3309 1.6431q0 0.79872-0.28526 1.529-0.28526 0.71885-0.7759 1.2894-0.49064 0.5591-1.1639 0.93564-0.6618 0.37654-1.4263 0.47924h-12.186q-0.60475 0-1.1296-0.22821-0.52487-0.23962-0.91282-0.62757-0.38795-0.39936-0.61616-0.92423-0.22821-0.53629-0.22821-1.141 0-0.59334 0.22821-1.1182 0.22821-0.53629 0.61616-0.92424 0.38795-0.38795 0.91282-0.61615 0.52487-0.22821 1.1296-0.22821 0.25103 0 0.53628 0.0571 0.31949-0.61615 0.91282-0.98128 0.59334-0.36513 1.335-0.36513 0.31949 0 0.60475 0.0799 0.28526 0.0685 0.54769 0.19397-0.02282-0.14833-0.04564-0.27384-0.01141-0.13693-0.01141-0.28526 0-0.70744 0.26244-1.3236 0.27385-0.62756 0.74167-1.0954 0.46782-0.46783 1.084-0.73026 0.62757-0.27385 1.335-0.27385 0.59334 0 1.1182 0.19397 0.53628 0.18257 0.96988 0.52488 0.43359 0.3309 0.74167 0.79872 0.31949 0.45641 0.47923 1.0041 0.26244-0.0571 0.51346-0.1027 0.25103-0.057 0.52487-0.057zm-15.381 2.6586q0.20538 0.30808 0.50205 0.57052-0.57052 0.7759-0.69603 1.8485-0.09128 0.0571-0.2168 0.1141-0.1141 0.0571-0.27385 0.0571-0.12551 0-0.26244-0.0456-0.13692-0.0571-0.28526-0.18257-0.12551-0.1141-0.18256-0.25102-0.04564-0.14834-0.04564-0.30808 0-0.3309 0.22821-0.5591z" fill="#3f51b5" stroke-width=".58421"/>
  </g>
 </g>
</svg>
