<?xml version="1.0" encoding="UTF-8" standalone="no"?>
<svg
   xmlns:dc="http://purl.org/dc/elements/1.1/"
   xmlns:cc="http://creativecommons.org/ns#"
   xmlns:rdf="http://www.w3.org/1999/02/22-rdf-syntax-ns#"
   xmlns:svg="http://www.w3.org/2000/svg"
   xmlns="http://www.w3.org/2000/svg"
   xmlns:sodipodi="http://sodipodi.sourceforge.net/DTD/sodipodi-0.dtd"
   xmlns:inkscape="http://www.inkscape.org/namespaces/inkscape"
   width="74.172302mm"
   height="15.974423mm"
   viewBox="0 0 74.172302 15.974423"
   version="1.1"
   id="svg993"
   inkscape:version="1.0.2-2 (e86c870879, 2021-01-15)"
   sodipodi:docname="logo-white.svg">
  <defs
     id="defs987" />
  <sodipodi:namedview
     id="base"
     pagecolor="#ffffff"
     bordercolor="#666666"
     borderopacity="1.0"
     inkscape:pageopacity="0.0"
     inkscape:pageshadow="2"
     inkscape:zoom="2.8"
     inkscape:cx="157.55343"
     inkscape:cy="67.972231"
     inkscape:document-units="mm"
     inkscape:current-layer="text12-6-6-3-4"
     inkscape:document-rotation="0"
     showgrid="false"
     fit-margin-top="0"
     fit-margin-left="0"
     fit-margin-right="0"
     fit-margin-bottom="0"
     inkscape:window-width="2560"
     inkscape:window-height="1336"
     inkscape:window-x="594"
     inkscape:window-y="2152"
     inkscape:window-maximized="1" />
  <metadata
     id="metadata990">
    <rdf:RDF>
      <cc:Work
         rdf:about="">
        <dc:format>image/svg+xml</dc:format>
        <dc:type
           rdf:resource="http://purl.org/dc/dcmitype/StillImage" />
        <dc:title></dc:title>
      </cc:Work>
    </rdf:RDF>
  </metadata>
  <g
     inkscape:label="Layer 1"
     inkscape:groupmode="layer"
     id="layer1"
     transform="translate(-61.943606,-131.10803)">
    <g
       aria-label="myClarity"
       id="text12-2-5"
       style="font-size:10.5833px;line-height:1.25;font-family:Lexend;-inkscape-font-specification:Lexend;stroke-width:0.264583;fill:#ffffff;fill-opacity:1">
      <path
         d="m 88.099554,143.82703 v -5.50332 h 0.507998 l 0.04233,1.016 q 0.264583,-0.53975 0.804331,-0.83608 0.539748,-0.29634 1.206496,-0.29634 0.539749,0 0.941914,0.26459 0.412749,0.254 0.645581,0.98424 0.15875,-0.32808 0.455082,-0.61383 0.306916,-0.28575 0.719665,-0.45508 0.423332,-0.17992 0.93133,-0.17992 0.825497,0 1.280579,0.56092 0.465665,0.55033 0.465665,1.72508 v 3.33374 h -0.529165 v -3.31258 q 0,-0.92074 -0.349249,-1.35466 -0.338665,-0.4445 -1.005413,-0.4445 -0.539748,0 -0.96308,0.24342 -0.412749,0.24341 -0.656165,0.64558 -0.232832,0.40217 -0.232832,0.85725 v 3.36549 h -0.529165 v -3.31258 q 0,-0.92074 -0.349249,-1.35466 -0.349249,-0.4445 -1.015997,-0.4445 -0.539748,0 -0.952497,0.24342 -0.412749,0.24341 -0.656165,0.64558 -0.232832,0.40217 -0.232832,0.85725 v 3.36549 z"
         style="font-style:normal;font-variant:normal;font-weight:300;font-stretch:normal;font-family:Lexend;-inkscape-font-specification:'Lexend Light';fill:#ffffff;fill-opacity:1"
         id="path844" />
      <path
         d="m 98.524083,146.26119 0.941914,-2.40241 -2.571742,-5.53507 h 0.560915 l 2.042577,4.38149 q 0.05292,0.127 0.105833,0.254 0.05292,0.11641 0.105833,0.24341 0.03175,-0.0741 0.05292,-0.13758 0.03175,-0.0741 0.0635,-0.14817 l 1.841491,-4.59315 h 0.56092 l -2.19075,5.50332 -0.963075,2.43416 z"
         style="font-style:normal;font-variant:normal;font-weight:300;font-stretch:normal;font-family:Lexend;-inkscape-font-specification:'Lexend Light';fill:#ffffff;fill-opacity:1"
         id="path846" />
      <path
         d="m 106.35571,143.93286 q -1.02658,0 -1.83091,-0.48683 -0.79375,-0.48683 -1.24883,-1.34408 -0.45508,-0.85725 -0.45508,-1.97908 0,-0.79375 0.27516,-1.47108 0.28575,-0.68791 0.78317,-1.20649 0.49741,-0.51858 1.15358,-0.80433 0.65616,-0.28575 1.41816,-0.28575 0.53975,0 1.04775,0.16933 0.51858,0.15875 0.93133,0.45508 0.42333,0.28575 0.68791,0.65617 l -0.762,0.79374 q -0.91016,-0.93133 -1.90499,-0.93133 -0.68792,0 -1.24883,0.33867 -0.56091,0.33866 -0.889,0.93133 -0.32808,0.59266 -0.32808,1.35466 0,0.81492 0.3175,1.40758 0.32808,0.59267 0.89958,0.92075 0.58208,0.32808 1.34408,0.32808 0.52916,0 1.016,-0.21167 0.48683,-0.21166 0.84666,-0.58208 l 0.5715,0.93133 q -0.24342,0.28575 -0.66675,0.51858 -0.41275,0.23284 -0.93133,0.37042 -0.508,0.127 -1.02658,0.127 z"
         style="font-style:normal;font-variant:normal;font-weight:500;font-stretch:normal;font-family:Lexend;-inkscape-font-specification:'Lexend Medium';fill:#ffffff;fill-opacity:1"
         id="path848" />
      <path
         d="m 110.2821,143.82703 v -7.83165 h 1.09008 v 7.83165 z"
         style="font-style:normal;font-variant:normal;font-weight:500;font-stretch:normal;font-family:Lexend;-inkscape-font-specification:'Lexend Medium';fill:#ffffff;fill-opacity:1"
         id="path850" />
      <path
         d="m 114.94933,143.93286 q -0.68792,0 -1.25941,-0.381 -0.56092,-0.381 -0.89958,-1.03716 -0.33867,-0.65617 -0.33867,-1.48166 0,-0.83609 0.33867,-1.48167 0.34925,-0.65616 0.93133,-1.02658 0.59266,-0.37041 1.32291,-0.37041 0.62441,0 1.10066,0.27516 0.48683,0.26459 0.74083,0.68792 v -0.84667 h 1.10067 v 5.55624 h -1.10067 v -0.85725 q -0.28575,0.40216 -0.81491,0.68791 -0.51858,0.27517 -1.12183,0.27517 z m 0.28575,-1.00541 q 0.49741,0 0.87841,-0.24342 0.381,-0.24342 0.59267,-0.66675 0.22225,-0.43391 0.22225,-0.98424 0,-0.53975 -0.22225,-0.96309 -0.21167,-0.42333 -0.59267,-0.66674 -0.381,-0.24342 -0.87841,-0.24342 -0.48683,0 -0.86783,0.24342 -0.37042,0.24341 -0.59267,0.66674 -0.21166,0.42334 -0.21166,0.96309 0,0.55033 0.21166,0.98424 0.22225,0.42333 0.59267,0.66675 0.381,0.24342 0.86783,0.24342 z"
         style="font-style:normal;font-variant:normal;font-weight:500;font-stretch:normal;font-family:Lexend;-inkscape-font-specification:'Lexend Medium';fill:#ffffff;fill-opacity:1"
         id="path852" />
      <path
         d="m 119.51073,143.82703 v -5.55624 h 1.10066 v 1.04775 q 0.24341,-0.49741 0.70908,-0.8255 0.46566,-0.33866 0.98425,-0.33866 0.17991,0 0.33866,0.0317 0.16933,0.0318 0.26458,0.0741 l -0.28574,1.18533 q -0.127,-0.0529 -0.28575,-0.0847 -0.14817,-0.0423 -0.29634,-0.0423 -0.38099,0 -0.70908,0.1905 -0.3175,0.1905 -0.51858,0.51858 -0.20108,0.32808 -0.20108,0.73025 v 3.06916 z"
         style="font-style:normal;font-variant:normal;font-weight:500;font-stretch:normal;font-family:Lexend;-inkscape-font-specification:'Lexend Medium';fill:#ffffff;fill-opacity:1"
         id="path854" />
      <path
         d="m 124.50604,137.04313 q -0.34925,0 -0.53975,-0.17991 -0.19049,-0.17992 -0.19049,-0.508 0,-0.30692 0.19049,-0.49742 0.20109,-0.1905 0.53975,-0.1905 0.34925,0 0.53975,0.17992 0.1905,0.17991 0.1905,0.508 0,0.30691 -0.20108,0.49741 -0.1905,0.1905 -0.52917,0.1905 z m -0.52916,6.7839 v -5.55624 h 1.09008 v 5.55624 z"
         style="font-style:normal;font-variant:normal;font-weight:500;font-stretch:normal;font-family:Lexend;-inkscape-font-specification:'Lexend Medium';fill:#ffffff;fill-opacity:1"
         id="path856" />
      <path
         d="m 127.40586,143.82703 v -4.49791 h -1.15358 v -1.05833 h 1.15358 v -1.41816 h 1.09008 v 1.41816 h 1.29117 v 1.05833 h -1.29117 v 4.49791 z"
         style="font-style:normal;font-variant:normal;font-weight:500;font-stretch:normal;font-family:Lexend;-inkscape-font-specification:'Lexend Medium';fill:#ffffff;fill-opacity:1"
         id="path858" />
      <path
         d="m 131.71326,146.26119 0.94191,-2.16958 -2.58233,-5.82082 h 1.27 l 1.73566,4.08516 q 0.0529,0.11641 0.13758,0.37041 l 0.15875,-0.4445 1.44992,-4.01107 h 1.29116 l -2.28599,5.55624 -0.94192,2.43416 z"
         style="font-style:normal;font-variant:normal;font-weight:500;font-stretch:normal;font-family:Lexend;-inkscape-font-specification:'Lexend Medium';fill:#ffffff;fill-opacity:1"
         id="path860" />
    </g>
    <g
       aria-label="🌤"
       id="text12-6-6-3-4"
       style="font-size:23.3683px;line-height:1.25;font-family:Lexend;-inkscape-font-specification:Lexend;fill:#3f51b5;fill-opacity:1;stroke-width:0.58421">
      <path
         d="m 64.442462,138.94691 q 0.02282,0.0913 0.03423,0.17115 0.02282,0.0685 0.02282,0.13693 h -1.802828 q -0.296668,0 -0.513463,-0.22821 -0.216796,-0.2282 -0.239617,-0.53628 0,-0.3309 0.228206,-0.57052 0.239617,-0.23961 0.559105,-0.23961 h 1.768597 q -0.06846,0.46782 -0.06846,0.90141 0,0.0913 0,0.18257 0,0.0913 0.01141,0.18256 z m -0.365129,-4.55271 q -0.239617,-0.23962 -0.239617,-0.57052 0,-0.30807 0.205386,-0.54769 0.228206,-0.22821 0.559105,-0.22821 0.319488,0 0.570515,0.22821 l 1.232312,1.23231 q -0.319488,0.22821 -0.593335,0.52488 -0.273848,0.28525 -0.502054,0.59333 z m 5.944767,-0.78731 q -0.171154,-0.0228 -0.353719,-0.0342 -0.171155,-0.0228 -0.36513,-0.0228 -0.262437,0 -0.513463,0.0342 -0.159745,0 -0.330899,0.0571 v -1.74578 q 0,-0.3309 0.216796,-0.5591 0.228206,-0.22821 0.559104,-0.22821 h 0.03423 q 0.308079,0 0.524874,0.22821 0.228206,0.2282 0.228206,0.53628 z m 3.206295,1.93975 q -0.228206,-0.31949 -0.513463,-0.59334 -0.273848,-0.28525 -0.616157,-0.50205 l 1.243723,-1.23231 q 0.114103,-0.10269 0.239617,-0.15975 0.125513,-0.0685 0.285257,-0.0685 0.319489,0 0.570515,0.22821 0.228206,0.25102 0.228206,0.54769 0,0.31949 -0.228206,0.5477 z m -6.572334,5.47694 q -0.513463,-0.51346 -0.787311,-1.17526 -0.273847,-0.6732 -0.273847,-1.43769 0,-0.76449 0.285258,-1.4377 0.296667,-0.68462 0.798721,-1.18667 0.502053,-0.50206 1.175261,-0.78731 0.673208,-0.29667 1.437698,-0.29667 0.581925,0 1.11821,0.18256 0.536284,0.17116 0.981286,0.47923 0.445001,0.30808 0.787311,0.74167 0.342309,0.42219 0.536284,0.92424 -0.296668,0.43359 -0.513464,0.89 -0.205385,0.45641 -0.296668,0.96988 h -0.02282 q -0.821542,0 -1.563212,0.34231 -0.741669,0.3309 -1.277954,0.94705 -0.673207,0.0228 -1.277954,0.23962 -0.593335,0.21679 -1.106799,0.60474 z m 14.091724,-2.38475 q 0.867183,0 1.620263,0.3309 0.76449,0.3309 1.335005,0.90141 0.570515,0.57052 0.901414,1.33501 0.330899,0.76449 0.330899,1.64308 0,0.79872 -0.285258,1.52898 -0.285257,0.71885 -0.7759,1.28937 -0.490643,0.5591 -1.163851,0.93564 -0.661798,0.37654 -1.426288,0.47924 H 69.097866 q -0.604746,0 -1.12962,-0.22821 -0.524874,-0.23962 -0.912824,-0.62757 -0.387951,-0.39936 -0.616157,-0.92423 -0.228206,-0.53629 -0.228206,-1.14103 0,-0.59334 0.228206,-1.11821 0.228206,-0.53629 0.616157,-0.92424 0.38795,-0.38795 0.912824,-0.61615 0.524874,-0.22821 1.12962,-0.22821 0.251027,0 0.536284,0.0571 0.319489,-0.61615 0.912824,-0.98128 0.593336,-0.36513 1.335006,-0.36513 0.319488,0 0.604746,0.0799 0.285257,0.0685 0.547694,0.19397 -0.02282,-0.14833 -0.04564,-0.27384 -0.01141,-0.13693 -0.01141,-0.28526 0,-0.70744 0.262437,-1.3236 0.273847,-0.62756 0.741669,-1.09538 0.467823,-0.46783 1.083979,-0.73026 0.627567,-0.27385 1.335005,-0.27385 0.593336,0 1.11821,0.19397 0.536284,0.18257 0.969876,0.52488 0.433591,0.3309 0.741669,0.79872 0.319489,0.45641 0.479233,1.00411 0.262437,-0.0571 0.513464,-0.1027 0.251026,-0.057 0.524874,-0.057 z m -15.381088,2.6586 q 0.205385,0.30808 0.502053,0.57052 -0.570515,0.7759 -0.696028,1.84847 -0.09128,0.0571 -0.216796,0.1141 -0.114103,0.0571 -0.273847,0.0571 -0.125514,0 -0.262437,-0.0456 -0.136924,-0.0571 -0.285258,-0.18257 -0.125513,-0.1141 -0.182565,-0.25102 -0.04564,-0.14834 -0.04564,-0.30808 0,-0.3309 0.228206,-0.5591 z"
         style="fill:#ffffff;fill-opacity:1;stroke-width:0.58421"
         id="path1441" />
    </g>
  </g>
</svg>
